<?xml version="1.0" standalone="no"?>
<!DOCTYPE svg PUBLIC "-//W3C//DTD SVG 20010904//EN"
 "http://www.w3.org/TR/2001/REC-SVG-20010904/DTD/svg10.dtd">
<svg version="1.0" xmlns="http://www.w3.org/2000/svg"
 width="294.000000pt" height="294.000000pt" viewBox="0 0 294.000000 294.000000"
 preserveAspectRatio="xMidYMid meet">
<metadata>
Created by potrace 1.11, written by Peter Selinger 2001-2013
</metadata>
<g transform="translate(0.000000,294.000000) scale(0.100000,-0.100000)"
fill="#000000" stroke="none">
<path d="M226 2034 c-27 -7 -64 -25 -83 -41 -88 -72 -141 -255 -137 -478 3
-166 6 -190 31 -273 20 -69 32 -91 67 -127 24 -23 59 -47 77 -51 30 -8 23 -10
-46 -14 l-80 -5 -3 -68 c-2 -38 1 -74 7 -81 11 -13 384 -16 397 -3 11 11 13
107 2 135 -8 22 -12 23 -88 20 -44 -2 -80 0 -80 5 0 4 9 7 20 7 63 0 132 67
164 158 14 38 19 76 30 237 2 22 0 50 -5 63 -8 21 -13 22 -134 22 -69 0 -125
-1 -125 -2 -9 -53 -9 -121 -1 -136 9 -17 19 -20 57 -18 l46 2 -6 -55 c-7 -62
-31 -102 -67 -112 -37 -9 -56 6 -80 68 -20 52 -23 76 -23 223 -1 173 9 241 47
313 20 39 53 55 84 41 10 -4 20 -8 23 -8 3 -1 16 -11 29 -23 20 -18 20 -21 4
-20 -10 1 -21 11 -25 22 -4 11 -4 -2 -1 -30 3 -27 6 -51 7 -52 3 -3 64 -6 110
-5 l49 2 -5 63 c-7 85 -41 159 -87 191 -50 35 -113 46 -175 30z m93 -26 c14
-23 14 -23 -7 -4 -16 14 -30 17 -54 12 -23 -4 -29 -3 -18 4 27 17 64 11 79
-12z m81 -21 c38 -29 71 -108 73 -171 2 -49 1 -51 -25 -54 -21 -3 -28 1 -28
14 0 14 2 14 16 3 13 -10 17 -10 24 2 7 10 2 17 -15 27 -14 7 -25 15 -25 18 0
2 9 0 20 -6 26 -14 27 5 3 33 -10 11 -12 17 -5 13 8 -5 12 -1 12 11 0 11 -6
25 -12 32 -7 6 -13 15 -13 19 -1 19 -30 55 -58 74 -18 11 -24 17 -13 14 10 -3
31 -16 46 -29z m-183 16 c-4 -3 -2 -12 5 -20 10 -12 7 -12 -15 -2 -45 21 -44
0 3 -42 l45 -40 -49 36 c-66 47 -82 28 -23 -28 35 -32 37 -35 10 -17 -18 11
-35 25 -38 30 -8 13 -35 13 -35 0 0 -6 15 -24 33 -41 l32 -31 -33 26 c-40 31
-56 33 -49 6 3 -11 2 -18 -3 -15 -18 11 -17 -23 1 -36 10 -7 19 -18 19 -23 0
-5 -9 -1 -19 8 -26 24 -37 2 -12 -23 11 -11 21 -17 24 -15 2 2 4 -2 4 -10 0
-11 -6 -10 -26 6 -24 19 -26 19 -30 2 -2 -11 8 -27 25 -41 32 -26 26 -31 -9
-8 -21 13 -23 13 -24 -5 -1 -11 3 -22 8 -25 5 -4 7 -10 4 -15 -4 -6 56 -60 68
-60 2 0 2 17 1 38 -1 20 3 43 8 50 7 8 7 16 0 25 -8 10 -6 13 8 14 12 1 18 -4
16 -15 -2 -9 -7 -34 -10 -56 -11 -61 -9 -286 4 -341 24 -104 53 -138 114 -128
29 5 39 13 56 47 11 23 20 57 20 74 0 18 4 32 9 32 7 0 8 -68 0 -90 -1 -3 -1
-8 -1 -11 1 -4 -10 -19 -24 -34 -14 -15 -23 -34 -20 -41 4 -11 1 -12 -14 -4
-10 5 -25 10 -32 9 -10 0 -10 -2 0 -6 6 -2 12 -9 12 -14 0 -15 -54 17 -94 54
-20 19 -37 32 -39 30 -3 -2 -18 12 -36 32 -17 20 -31 33 -31 29 0 -3 -7 -1
-15 6 -9 7 -18 10 -22 6 -4 -3 10 -21 29 -39 39 -34 47 -41 123 -102 27 -22
63 -52 80 -67 16 -16 36 -28 43 -28 6 0 12 -4 12 -10 0 -13 -18 -9 -44 12
-106 85 -141 111 -185 143 -28 21 -51 31 -51 24 0 -30 -12 3 -16 47 -3 27 -7
64 -9 82 -5 37 -3 36 60 -11 54 -41 64 -51 43 -44 -30 11 -32 -15 -3 -40 15
-13 30 -21 34 -18 3 4 -5 16 -19 28 -14 11 -18 18 -8 14 16 -5 20 14 6 29 -4
3 -4 12 -1 20 3 8 0 14 -7 14 -6 0 -8 -6 -4 -12 4 -7 3 -9 -1 -5 -17 15 -14
36 3 30 14 -5 15 -3 5 7 -8 9 -9 19 -3 30 7 13 3 23 -15 40 -14 13 -25 28 -25
34 0 7 3 8 8 1 12 -16 32 -16 32 0 0 8 -3 15 -7 15 -5 0 -26 15 -47 33 -27 23
-36 36 -27 41 6 4 10 3 9 -2 -2 -5 11 -21 29 -36 45 -38 54 -14 12 32 -22 24
-25 30 -9 17 14 -11 28 -24 31 -29 4 -4 10 -3 14 4 8 13 -71 90 -93 90 -12 0
-12 -4 2 -25 19 -28 15 -33 -8 -9 -9 9 -14 25 -11 37 3 12 7 33 9 47 23 139
66 226 135 272 25 17 62 25 48 11z m161 -39 l27 -27 -32 22 c-18 12 -33 24
-33 27 0 10 13 2 38 -22z m-113 -14 c10 -11 16 -20 13 -20 -3 0 -13 9 -23 20
-10 11 -16 20 -13 20 3 0 13 -9 23 -20z m46 -37 c13 -16 12 -17 -3 -4 -10 7
-18 15 -18 17 0 8 8 3 21 -13z m59 -45 c0 -12 -6 -9 -26 13 -19 22 -19 22 4 8
12 -8 22 -17 22 -21z m-219 -35 c13 -16 12 -17 -3 -4 -10 7 -18 15 -18 17 0 8
8 3 21 -13z m49 -2 c-12 -24 -30 -36 -30 -22 0 6 5 11 10 11 6 0 10 7 10 15 0
8 5 15 10 15 7 0 7 -6 0 -19z m-20 -57 c0 -19 -14 -17 -34 5 -16 18 -16 18 9
14 14 -3 25 -12 25 -19z m185 -13 c-6 -5 -25 10 -25 20 0 5 6 4 14 -3 8 -7 12
-15 11 -17z m-331 -177 c-5 -19 0 -33 22 -57 16 -17 19 -23 7 -13 -12 10 -27
15 -32 11 -7 -4 -11 11 -11 45 0 32 4 49 10 45 6 -3 7 -17 4 -31z m301 -64
c-3 -4 20 -26 50 -49 30 -23 55 -44 55 -47 0 -3 -26 15 -57 39 -60 45 -130 74
-103 42 7 -8 15 -14 17 -11 2 2 16 -8 31 -23 15 -14 42 -37 61 -51 38 -28 61
-49 61 -56 0 -3 -30 19 -67 49 -99 78 -123 93 -123 74 0 -8 21 -31 48 -51 26
-20 59 -45 73 -56 14 -11 38 -31 53 -45 34 -31 40 -31 34 0 -3 14 -2 25 2 25
11 0 0 82 -13 98 -7 9 -6 11 6 6 26 -10 8 36 -19 48 -33 15 -41 3 -18 -24 l19
-23 -26 23 c-14 12 -35 22 -47 22 -12 0 -22 4 -22 9 0 7 93 9 134 2 13 -2 -1
-228 -18 -282 -20 -63 -57 -121 -91 -139 -26 -14 -28 -13 -53 15 -14 17 -30
29 -35 27 -4 -1 -6 2 -2 8 4 6 12 5 25 -2 10 -7 17 -15 14 -19 -2 -4 2 -12 10
-18 16 -13 49 -4 39 12 -4 6 0 8 10 4 20 -8 44 28 24 36 -6 3 -4 6 7 6 15 1
16 4 6 16 -11 13 -10 14 4 9 27 -10 19 26 -11 52 -16 13 -24 24 -19 24 5 0 17
-7 27 -16 21 -19 46 -10 27 9 -7 7 -25 20 -40 30 -16 10 -28 22 -28 28 0 6 14
-1 31 -15 31 -27 49 -33 49 -17 0 10 -89 81 -102 81 -4 0 -8 7 -8 15 0 13 -19
20 -43 16 -5 -1 -6 3 -2 8 7 12 -34 36 -43 26 -4 -4 2 -13 12 -21 19 -14 19
-14 -2 -14 -20 0 -22 5 -22 65 l0 64 45 -1 c24 0 43 -4 40 -8z m-302 -25 c4
-8 2 -17 -3 -20 -6 -4 -10 3 -10 14 0 25 6 27 13 6z m51 -37 c-5 -7 8 -12 27
-10 12 2 5 -27 -8 -32 -8 -3 -11 -1 -8 4 3 5 -3 15 -15 22 -24 15 -26 25 -5
25 8 0 12 -4 9 -9z m-57 -20 c-3 -8 -6 -5 -6 6 -1 11 2 17 5 13 3 -3 4 -12 1
-19z m48 -28 c10 -11 16 -20 13 -20 -3 0 -13 9 -23 20 -10 11 -16 20 -13 20 3
0 13 -9 23 -20z m97 -264 c47 -41 89 -72 92 -69 3 4 6 4 6 1 0 -3 -8 -12 -17
-19 -11 -10 -14 -10 -9 -1 5 8 1 12 -10 12 -10 0 -14 3 -11 6 10 10 -133 123
-148 118 -7 -3 -14 5 -17 20 -7 34 7 26 114 -68z m-58 -11 c3 -8 20 -24 38
-35 18 -11 27 -20 20 -20 -16 0 -91 69 -76 70 7 0 14 -7 18 -15z m69 -112 c-3
-6 8 -19 24 -29 15 -10 33 -22 38 -28 6 -6 25 -23 43 -39 29 -23 31 -27 13
-27 -12 0 -21 4 -21 9 0 12 -150 121 -167 121 -24 0 -2 -26 50 -60 28 -18 56
-39 60 -47 4 -7 17 -13 28 -13 11 0 18 -4 15 -8 -6 -10 -108 -4 -116 7 -3 3
-22 19 -42 34 -35 25 -38 26 -38 9 0 -22 16 -38 45 -45 12 -3 4 -5 -17 -6
l-38 -1 1 53 c0 28 3 46 6 40 2 -7 8 -13 12 -13 5 0 25 -16 45 -35 22 -20 48
-35 62 -35 13 0 24 2 24 4 0 8 -135 101 -142 98 -5 -1 -8 2 -8 7 0 13 25 18
81 17 32 0 45 -4 42 -13z m154 -27 c23 -17 42 -35 43 -39 0 -5 -20 8 -45 29
-34 28 -49 34 -57 26 -9 -9 -7 -16 5 -30 9 -10 17 -23 17 -28 -1 -5 -10 2 -21
16 -12 14 -24 25 -28 25 -3 0 -17 8 -31 18 -27 19 -11 24 20 5 22 -14 41 -2
20 13 -11 8 -8 8 10 3 13 -4 44 -21 67 -38z m0 38 c-3 -3 -12 -4 -19 -1 -8 3
-5 6 6 6 11 1 17 -2 13 -5z m43 -4 c-8 -5 -19 -10 -25 -10 -5 0 -3 5 5 10 8 5
20 10 25 10 6 0 3 -5 -5 -10z m70 -66 c0 -50 -3 -64 -15 -64 -12 0 -13 4 -3
26 10 21 9 27 -3 35 -11 7 -11 9 0 9 10 0 12 9 6 36 -4 24 -3 34 4 29 6 -3 11
-35 11 -71z m-75 -62 c-9 -9 -35 8 -35 24 0 16 2 16 20 -1 11 -10 18 -20 15
-23z"/>
<path d="M35 1380 c-6 -9 32 -50 47 -50 4 0 8 8 8 18 0 20 -46 47 -55 32z"/>
<path d="M890 2042 c-141 -15 -237 -109 -290 -285 -25 -84 -33 -146 -31 -247
2 -115 56 -320 80 -306 5 3 16 -3 26 -14 10 -11 23 -20 30 -20 6 0 24 -14 41
-31 35 -37 79 -61 102 -57 11 2 0 15 -35 41 -29 21 -73 56 -100 77 -26 22 -53
40 -60 40 -11 0 -33 30 -33 45 0 6 56 -37 108 -84 15 -13 47 -37 72 -54 25
-17 58 -41 73 -54 l29 -23 -35 0 c-41 0 -97 18 -97 32 0 5 -4 6 -10 3 -5 -3
-10 1 -10 9 0 9 -11 18 -25 22 -14 3 -35 19 -46 36 -12 16 -23 27 -26 24 -3
-3 9 -24 28 -47 31 -40 110 -86 154 -91 11 -1 -50 -5 -135 -8 l-155 -5 -3 -69
c-2 -38 2 -74 7 -79 16 -16 380 -17 396 -1 13 14 14 122 0 143 -3 6 -25 11
-48 12 -40 1 -38 1 22 15 43 9 74 22 92 40 l28 26 -32 60 c-17 33 -37 62 -43
65 -7 2 -26 -3 -43 -11 -47 -25 -79 -20 -113 16 -55 59 -72 124 -71 270 1 135
34 247 89 302 34 34 67 42 112 28 20 -7 40 -8 44 -4 11 12 48 112 48 132 0 10
-4 22 -10 25 -19 12 -105 30 -130 27z m35 -89 c19 -9 32 -20 30 -24 -3 -4 2
-9 10 -13 8 -3 17 0 21 6 8 13 -35 48 -56 45 -8 -1 -14 3 -13 10 2 6 -8 21
-22 31 l-25 20 25 0 c14 0 25 -6 25 -13 0 -14 56 -65 71 -65 17 0 9 21 -18 45
-16 13 -22 25 -15 25 7 0 15 -7 18 -15 4 -8 10 -15 16 -15 5 0 6 6 2 13 -4 6
0 5 9 -3 15 -14 15 -20 -5 -73 -14 -37 -26 -57 -37 -57 -13 0 -13 2 -2 9 18
12 11 21 -56 72 -82 61 -80 59 -63 69 10 6 19 1 32 -21 10 -16 33 -37 53 -46z
m-110 47 c-3 -5 0 -10 8 -10 8 0 17 -9 20 -19 2 -11 23 -31 45 -45 22 -14 43
-30 47 -36 10 -17 -13 -11 -32 8 -31 31 -100 82 -112 82 -15 0 -14 17 2 23 20
9 29 8 22 -3z m-9 -62 c25 -24 53 -46 62 -49 14 -5 14 -6 -1 -12 -9 -3 -17 -3
-17 1 0 4 -23 25 -51 46 -70 54 -87 34 -19 -23 28 -24 49 -45 47 -47 -4 -5
-59 39 -84 67 -14 15 -17 14 -37 -5 l-22 -21 25 -30 26 -30 -26 23 c-31 27
-39 28 -39 4 0 -10 -5 -23 -11 -29 -8 -8 -2 -19 22 -42 19 -17 43 -33 55 -37
20 -5 20 -6 3 -72 -26 -104 -23 -234 6 -342 l7 -25 -23 26 c-13 14 -52 48 -86
74 l-63 48 0 66 c1 57 2 64 14 49 7 -10 16 -18 20 -18 4 0 17 -11 29 -23 12
-13 32 -29 45 -36 20 -11 23 -10 20 6 -4 24 -45 56 -60 47 -10 -5 -10 -4 -1 6
10 11 16 10 33 -5 23 -21 28 -13 33 55 1 25 7 51 11 59 7 11 0 23 -25 43 -47
40 -66 50 -74 38 -3 -5 11 -26 32 -46 37 -36 37 -36 5 -14 -18 12 -36 19 -40
16 -3 -4 -1 -11 7 -15 7 -5 13 -12 14 -17 1 -5 7 -8 12 -6 6 2 7 0 3 -4 -4 -4
-2 -14 4 -23 7 -9 1 -6 -13 7 -30 26 -35 27 -42 8 -4 -10 -1 -13 7 -10 7 3 19
-3 27 -13 13 -16 12 -17 -3 -5 -30 23 -42 3 -16 -26 21 -25 21 -25 1 -8 -12
10 -27 15 -33 11 -7 -4 -9 1 -5 17 3 12 7 34 9 48 5 43 38 143 61 190 23 43
86 120 99 120 4 0 28 -19 52 -42z m4 -101 c0 -2 -9 -12 -19 -21 -14 -13 -21
-14 -27 -5 -4 7 -3 10 3 6 6 -4 16 0 23 8 12 14 20 19 20 12z m-42 -64 c-6 -7
-12 -13 -13 -13 -2 0 -5 6 -8 13 -3 7 3 13 14 13 13 0 15 -3 7 -13z m-127
-393 c4 0 14 -6 21 -12 30 -29 86 -67 91 -62 2 3 15 -11 27 -31 24 -38 65 -64
92 -58 13 3 16 0 12 -11 -4 -11 0 -16 13 -16 11 0 24 -10 30 -23 12 -25 59
-54 70 -43 4 4 2 11 -5 15 -7 4 -10 15 -6 24 3 10 -4 26 -20 42 -15 15 -24 31
-20 37 9 14 21 -1 49 -58 21 -45 22 -51 8 -66 -13 -14 -19 -15 -35 -5 -11 7
-29 17 -39 23 -10 6 -16 14 -12 17 3 4 -1 7 -10 7 -9 0 -26 9 -36 19 -11 11
-33 27 -48 35 -15 8 -48 33 -73 56 -25 23 -65 56 -90 73 -46 33 -69 56 -70 70
0 4 10 -1 22 -13 12 -11 25 -20 29 -20z m28 -75 c148 -121 274 -210 291 -207
13 3 13 2 0 -7 -18 -13 -50 -14 -50 -2 0 7 -69 63 -229 188 -50 39 -86 72 -77
73 5 0 34 -20 65 -45z m286 -115 c37 -38 21 -38 -25 0 -22 19 -29 30 -19 30 8
0 28 -13 44 -30z m-231 -169 c16 -13 40 -6 31 9 -3 4 6 7 19 6 13 0 24 -3 23
-6 -1 -3 16 -23 39 -45 39 -39 25 -31 -25 13 -28 25 -30 25 -49 13 -10 -6 -6
-15 20 -34 28 -22 29 -25 10 -20 -13 3 -26 12 -29 19 -3 8 -10 11 -17 7 -6 -3
-8 -3 -4 2 9 9 -61 49 -71 40 -3 -4 5 -15 19 -25 14 -11 32 -25 40 -32 9 -7
30 -25 49 -40 28 -24 30 -28 12 -28 -12 0 -21 3 -21 8 0 11 -132 108 -158 116
-30 10 -20 -17 14 -34 13 -7 24 -17 24 -22 0 -4 6 -8 14 -8 7 0 25 -11 40 -25
15 -14 34 -25 42 -25 7 0 14 -4 14 -8 0 -13 -55 -8 -60 6 -10 24 -135 111
-142 99 -5 -8 -8 -6 -8 5 0 9 8 18 18 21 35 8 142 -1 156 -12z m211 7 c4 -4 7
-65 6 -99 -1 -21 -7 -28 -28 -32 -26 -5 -26 -4 -8 9 19 14 29 61 20 102 -3 13
-10 20 -15 17 -5 -3 -11 -1 -15 4 -5 9 32 7 40 -1z m-351 -50 c-6 -9 60 -61
88 -70 21 -5 21 -6 -4 -7 -16 -1 -28 2 -28 7 0 4 -21 21 -45 37 -50 33 -54 41
-26 41 11 0 18 -4 15 -8z m18 -70 c18 -5 15 -6 -12 -5 -31 2 -35 5 -38 32 l-2
30 14 -25 c8 -14 25 -28 38 -32z m268 2 c12 -8 11 -10 -7 -10 -12 0 -27 9 -33
21 -10 18 -10 19 7 10 10 -6 25 -15 33 -21z"/>
<path d="M637 1786 c-6 -16 82 -81 94 -69 11 11 2 22 -43 56 -42 31 -44 32
-51 13z"/>
<path d="M596 1535 c-3 -10 12 -28 48 -55 55 -42 66 -47 66 -30 0 10 -91 100
-101 100 -4 0 -9 -7 -13 -15z"/>
<path d="M590 1483 c1 -18 119 -107 129 -97 6 6 -109 113 -121 114 -5 0 -8 -8
-8 -17z"/>
<path d="M1103 2039 c-6 -6 4 -69 30 -182 21 -94 40 -181 41 -192 2 -11 7 -33
10 -50 4 -16 11 -48 16 -70 33 -151 52 -235 61 -270 11 -44 15 -63 32 -147 13
-64 19 -68 104 -68 55 0 72 14 79 65 1 11 14 74 29 140 15 66 28 127 30 135 2
8 11 47 20 85 9 39 18 81 21 95 2 14 8 41 14 60 5 19 16 69 25 110 8 41 22
107 31 145 25 109 28 145 13 145 -8 0 -36 3 -64 6 -57 6 -83 -7 -90 -46 -2
-14 -12 -56 -20 -95 -27 -116 -42 -184 -71 -318 -15 -71 -30 -123 -34 -115 -4
7 -13 42 -19 78 -7 36 -16 81 -21 100 -5 19 -13 60 -19 90 -24 119 -65 286
-74 297 -5 7 -14 10 -19 7 -7 -4 -4 -10 5 -15 8 -5 18 -28 22 -52 4 -23 9 -50
11 -60 2 -14 -6 -11 -39 14 -23 18 -55 44 -70 58 -24 22 -29 23 -37 11 -8 -12
-10 -10 -10 8 0 16 6 22 21 22 11 0 18 -4 15 -9 -6 -9 76 -81 92 -81 22 0 3
34 -33 61 -21 16 -33 29 -26 29 7 0 19 -7 28 -15 8 -8 19 -13 23 -10 5 3 2 13
-8 23 -19 19 -103 27 -119 11z m462 -19 c-11 -5 -14 -9 -7 -9 6 -1 12 -8 12
-16 0 -8 3 -14 8 -13 15 3 62 -26 62 -39 0 -8 -7 -44 -15 -81 -28 -123 -37
-161 -40 -184 -2 -13 -9 -43 -16 -68 -13 -50 -27 -115 -59 -265 -20 -95 -40
-145 -40 -98 0 12 6 24 13 27 8 3 3 12 -15 26 -16 12 -28 27 -28 33 1 8 5 6
13 -3 25 -31 45 -17 24 17 -6 9 -3 11 7 7 25 -10 19 5 -15 37 -36 33 -30 39 9
8 19 -14 28 -17 31 -8 5 17 -81 90 -94 78 -5 -6 -5 -13 3 -21 15 -15 16 -32 2
-23 -5 3 -10 -1 -10 -9 0 -8 -5 -18 -10 -21 -14 -9 -8 36 19 150 11 50 23 101
25 115 3 14 5 25 7 25 1 0 3 9 5 20 1 11 5 31 8 45 3 14 11 50 18 80 6 30 12
57 13 60 1 3 7 32 14 65 16 75 17 75 49 74 24 0 25 -1 7 -9z m58 -7 c20 -17
20 -17 14 0 -5 12 -3 17 5 15 6 -2 12 -11 14 -20 4 -30 -11 -33 -40 -5 -31 29
-25 38 7 10z m-496 -55 c-3 -8 -6 -5 -6 6 -1 11 2 17 5 13 3 -3 4 -12 1 -19z
m56 -30 c17 -13 38 -29 46 -36 7 -7 25 -20 38 -29 13 -9 22 -18 19 -20 -3 -3
-22 8 -43 23 -85 63 -137 116 -60 62z m-35 -28 c4 0 18 -10 32 -23 36 -33 97
-69 102 -60 3 5 4 3 2 -3 -1 -6 3 -17 9 -23 8 -8 8 -11 -1 -11 -6 0 -15 6 -19
13 -13 21 -63 48 -75 41 -6 -4 -8 -3 -4 4 3 6 -9 23 -29 39 -19 15 -34 35 -34
43 1 11 3 10 6 -2 2 -10 8 -18 11 -18z m17 -71 c0 -35 -11 -25 -20 20 -6 28
-5 32 6 21 8 -7 14 -25 14 -41z m70 -30 c-3 -3 9 -19 25 -34 19 -18 30 -23 30
-15 0 10 3 11 11 3 6 -6 9 -18 7 -26 -2 -11 -17 -2 -54 32 -35 32 -45 47 -33
47 10 0 16 -3 14 -7z m-50 -49 c7 -31 60 -84 76 -74 5 3 9 -2 9 -11 0 -11 5
-15 16 -11 8 3 12 2 9 -4 -3 -6 -1 -10 4 -10 22 0 10 29 -21 56 -28 22 -28 24
-5 10 15 -9 27 -13 27 -9 1 16 23 -31 30 -64 6 -24 5 -33 -3 -30 -7 3 -11 10
-9 16 1 7 -2 10 -7 7 -5 -3 -34 14 -65 40 -31 25 -56 39 -57 32 0 -18 -15 19
-22 60 -8 41 9 34 18 -8z m31 -1 c19 -22 19 -22 -3 -8 -13 8 -23 17 -23 21 0
12 6 9 26 -13z m40 -125 c19 -8 34 -18 34 -22 0 -4 14 -16 30 -25 20 -12 30
-26 29 -40 -1 -13 -3 -16 -6 -7 -2 8 -33 36 -69 63 -53 39 -64 44 -64 29 0
-11 18 -31 43 -48 23 -16 51 -37 61 -46 11 -10 26 -18 33 -18 7 0 13 -9 13
-20 0 -18 -2 -19 -20 -8 -11 7 -20 16 -20 20 0 3 -16 16 -35 28 -20 12 -42 29
-50 37 -8 8 -15 10 -15 4 0 -13 47 -63 54 -59 3 2 22 -9 40 -24 19 -16 39 -28
44 -28 12 0 22 -24 22 -52 0 -11 11 -29 25 -40 14 -11 25 -24 25 -30 0 -9 -35
14 -90 59 -49 40 -92 72 -101 75 -9 3 -26 70 -45 178 l-6 35 17 -24 c10 -13
33 -29 51 -37z m41 -224 c5 0 8 -6 8 -12 0 -7 8 -12 17 -12 10 1 16 -3 15 -10
-1 -6 4 -10 11 -8 6 1 12 -3 12 -9 0 -5 4 -8 9 -5 5 4 20 -7 34 -23 14 -17 27
-28 29 -25 3 2 10 -2 17 -9 9 -12 7 -14 -11 -13 -14 0 -22 -4 -20 -11 3 -19
-15 -16 -22 3 -5 12 -9 14 -20 5 -10 -8 -17 -6 -31 9 -14 16 -20 17 -27 8 -6
-10 -10 -10 -17 0 -7 11 -9 10 -14 -3 -4 -9 -3 -13 2 -10 5 3 13 0 17 -6 4 -8
3 -9 -4 -5 -7 4 -12 4 -12 1 0 -10 43 -44 55 -44 6 0 1 6 -9 14 -14 11 -16 15
-5 15 12 0 12 2 -1 10 -8 5 -12 12 -9 15 6 6 109 -71 109 -81 0 -3 -18 9 -40
26 -22 17 -40 27 -40 22 0 -5 7 -15 15 -22 8 -6 13 -17 12 -22 -1 -6 4 -13 12
-16 9 -3 11 0 6 9 -5 8 -5 11 -1 7 4 -3 8 -10 7 -15 0 -4 10 -19 22 -33 18
-19 18 -21 3 -10 -18 14 -19 13 -13 -3 4 -11 3 -16 -3 -12 -12 7 -12 3 -4 -19
3 -9 13 -16 21 -16 9 0 13 6 10 14 -3 8 1 17 9 20 12 5 14 1 8 -17 -8 -28 -9
-28 -28 -31 -9 -1 -36 16 -59 38 -41 39 -42 39 -45 16 -3 -16 4 -29 20 -41 23
-18 23 -18 1 -13 -25 7 -23 1 -58 149 -27 115 -31 137 -41 195 l-5 35 25 -28
c14 -15 29 -27 33 -27z m146 -14 c25 -19 21 -27 -8 -14 -14 6 -25 15 -25 20 0
12 12 9 33 -6z m27 -218 c0 -6 -6 -5 -15 2 -8 7 -15 14 -15 16 0 2 7 1 15 -2
8 -4 15 -11 15 -16z m-29 -5 c13 -16 12 -17 -3 -4 -17 13 -22 21 -14 21 2 0
10 -8 17 -17z"/>
<path d="M1545 1989 c-9 -14 62 -82 76 -73 23 14 -10 57 -44 59 -4 0 -12 6
-16 14 -7 11 -10 11 -16 0z"/>
<path d="M1522 1939 c6 -18 87 -73 95 -65 5 4 -10 23 -32 42 -40 33 -70 45
-63 23z"/>
<path d="M1510 1906 c0 -8 18 -30 40 -47 48 -39 46 -48 -4 -18 -51 30 -57 16
-12 -26 43 -39 56 -43 56 -17 0 10 6 24 13 31 10 10 5 18 -23 42 -52 44 -70
53 -70 35z"/>
<path d="M1490 1817 c0 -18 69 -87 88 -87 20 0 14 14 -20 46 -57 52 -68 59
-68 41z"/>
<path d="M1490 1751 c11 -22 62 -61 79 -61 21 0 11 19 -26 49 -44 36 -69 42
-53 12z"/>
<path d="M1471 1719 c2 -13 0 -30 -5 -37 -5 -8 0 -19 12 -30 62 -52 64 -54 75
-43 7 7 6 15 -3 26 -11 13 -11 16 0 13 28 -7 19 21 -17 49 -60 47 -65 48 -62
22z m44 -49 c10 -11 16 -20 13 -20 -3 0 -13 9 -23 20 -10 11 -16 20 -13 20 3
0 13 -9 23 -20z"/>
<path d="M1450 1637 c0 -17 68 -77 87 -77 29 0 0 37 -59 75 -24 15 -28 15 -28
2z"/>
<path d="M1440 1590 c0 -6 15 -24 33 -41 30 -29 30 -29 3 -10 -32 24 -59 14
-37 -13 10 -12 9 -15 -6 -18 -15 -3 -11 -11 21 -41 60 -56 96 -46 38 11 -15
15 -18 18 -5 8 19 -16 25 -17 36 -7 9 11 9 14 0 18 -7 3 -13 9 -13 14 0 4 6 6
13 3 29 -11 12 28 -24 56 -38 31 -59 38 -59 20z"/>
<path d="M1248 1492 c12 -9 44 -34 69 -54 26 -21 48 -36 50 -34 9 9 -12 37
-32 42 -13 3 -26 12 -29 19 -4 12 -61 46 -75 45 -3 -1 4 -9 17 -18z"/>
<path d="M1266 1387 c3 -10 9 -15 12 -12 3 3 0 11 -7 18 -10 9 -11 8 -5 -6z"/>
<path d="M1282 1364 c-17 -18 -15 -44 3 -44 8 0 15 7 15 16 0 9 -5 12 -12 8
-7 -4 -8 -3 -4 5 6 9 11 9 21 1 7 -6 16 -7 18 -2 3 4 -2 13 -11 19 -13 7 -21
7 -30 -3z"/>
<path d="M1323 1333 c-8 -3 -2 -14 17 -29 16 -14 35 -22 41 -18 6 3 15 0 20
-7 6 -10 8 -7 6 9 -1 13 -10 31 -21 40 -11 9 -16 11 -12 5 8 -15 1 -16 -22 -4
-9 4 -23 6 -29 4z m51 -42 c-3 -3 -15 6 -27 18 l-22 24 27 -19 c14 -10 24 -21
22 -23z"/>
<path d="M1349 1208 c-1 -7 -1 -17 0 -23 1 -5 -5 -2 -12 8 -15 19 -37 23 -37
7 0 -5 5 -10 10 -10 6 0 10 -7 10 -15 0 -8 3 -14 8 -14 18 3 33 -2 28 -10 -3
-4 5 -18 18 -30 l23 -21 -3 22 c-1 13 -3 25 -4 28 -1 3 -2 8 -1 13 0 4 -2 6
-6 6 -30 -5 -42 16 -19 32 4 4 3 10 -3 13 -6 4 -12 1 -12 -6z"/>
<path d="M2689 2038 c-22 -9 -21 9 -21 -320 0 -131 -3 -238 -7 -238 -5 0 -81
141 -86 160 -1 3 -10 23 -20 45 -10 22 -32 69 -48 105 -61 136 -111 235 -121
242 -6 4 -43 8 -82 8 -60 0 -72 -3 -75 -17 -2 -10 -4 -229 -4 -488 l1 -469 24
-7 c16 -4 -3 -7 -48 -8 -64 -1 -72 1 -59 13 19 20 16 134 -4 147 -8 5 -36 9
-64 9 l-50 0 2 145 c1 80 -2 145 -6 145 -4 0 -7 -54 -6 -120 1 -111 -4 -142
-18 -105 -4 8 -2 17 3 20 17 10 -6 41 -61 80 -28 20 -52 35 -54 33 -10 -11 20
-51 55 -73 22 -14 40 -28 40 -31 0 -4 -12 2 -27 12 -16 10 -39 23 -52 30 -21
11 -24 20 -26 74 -2 62 9 94 13 37 1 -19 11 -39 25 -50 12 -9 33 -26 47 -37
33 -26 54 -27 41 -2 -7 13 -6 23 1 30 9 9 7 17 -8 33 -10 13 -14 19 -7 16 20
-12 26 13 7 34 -10 11 -14 19 -9 18 6 -1 18 1 28 5 15 7 17 26 17 182 l0 174
54 0 c30 0 58 5 61 11 14 21 13 129 0 143 -11 10 -56 13 -189 13 -195 0 -209
-5 -148 -54 58 -46 71 -48 22 -4 -28 25 -39 41 -30 42 45 4 197 3 190 -1 -9
-6 114 -110 130 -110 22 0 8 20 -41 59 -29 23 -56 41 -61 41 -5 0 -6 5 -3 10
4 6 27 -7 54 -30 26 -22 53 -40 59 -40 16 0 15 -57 0 -62 -18 -7 -39 2 -32 13
3 5 1 9 -4 9 -4 0 -17 8 -28 18 -40 37 -84 64 -78 48 3 -9 12 -16 20 -16 7 0
21 -13 30 -30 10 -16 25 -31 33 -33 9 -1 4 -6 -12 -9 -15 -3 -25 -3 -22 0 2 3
0 11 -6 19 -15 17 -35 18 -22 1 8 -11 10 -129 4 -241 l-1 -29 -57 46 c-47 37
-59 43 -62 29 -3 -16 48 -68 57 -58 2 2 15 -8 28 -23 13 -15 24 -21 24 -14 0
6 4 12 9 12 9 0 9 -85 0 -95 -4 -3 -9 1 -13 10 -3 9 -2 13 4 10 11 -7 13 6 4
30 -7 17 -91 85 -105 85 -5 0 -9 -9 -9 -20 0 -11 5 -20 11 -20 5 0 24 -14 42
-31 l32 -31 -40 26 c-22 14 -45 26 -52 26 -15 0 -16 2 -4 33 6 14 7 28 3 32
-11 10 -10 95 1 95 5 0 7 -7 4 -15 -4 -9 14 -30 53 -60 48 -35 60 -41 60 -27
0 10 -6 24 -12 31 -11 10 -10 11 5 5 14 -5 16 -3 10 14 -9 23 -102 102 -119
102 -7 0 -11 11 -9 25 3 33 -23 65 -80 102 -44 27 -58 57 -32 66 6 2 9 8 4 12
-16 17 -27 -14 -29 -76 -1 -36 2 -70 6 -77 4 -7 30 -12 62 -12 l54 0 0 -325 0
-325 -54 0 c-30 0 -57 -4 -60 -8 -3 -5 -6 -39 -8 -76 -2 -50 1 -69 12 -76 10
-6 -25 -10 -100 -12 l-115 -3 -3 -68 c-2 -38 1 -74 7 -80 14 -18 389 -16 400
1 5 8 7 39 6 70 -4 75 -3 72 -20 72 -8 0 -15 3 -15 8 0 4 37 7 83 8 45 0 71
-2 57 -5 -23 -6 -25 -12 -28 -75 -2 -38 1 -73 7 -79 11 -11 331 -18 331 -6 0
4 -10 9 -22 11 -13 2 -24 11 -27 23 -3 19 -3 19 16 3 11 -10 27 -18 36 -18 11
0 14 -5 10 -15 -4 -13 0 -15 22 -11 38 7 41 15 40 87 -2 62 -12 79 -48 79 -13
0 -16 4 -9 18 4 9 8 149 7 311 l-1 294 44 -89 c25 -49 86 -180 136 -292 51
-111 100 -211 109 -222 16 -19 14 -19 -66 -22 l-82 -3 -3 -69 c-2 -39 2 -74 8
-80 12 -12 367 -17 391 -5 12 6 15 23 14 74 -1 36 -6 70 -11 75 -5 5 -36 10
-69 12 -54 3 -60 5 -57 24 2 15 -12 31 -52 60 -31 21 -56 43 -56 47 0 5 19 -7
43 -26 66 -53 66 -53 65 -2 0 42 -4 49 -46 81 -25 18 -40 34 -35 34 5 0 23
-11 39 -25 16 -14 32 -25 35 -25 10 0 5 34 -6 42 -6 5 -6 8 2 8 16 0 10 25
-13 52 l-19 23 23 -19 c22 -19 22 -19 22 2 0 12 -6 22 -12 22 -10 0 -10 2 -1
8 16 10 10 76 -8 100 -13 15 -12 16 3 4 16 -13 17 -5 15 110 -2 68 -6 129 -10
136 -5 7 -4 12 2 12 25 0 8 30 -36 64 -25 20 -50 36 -55 36 -19 0 -5 -25 35
-62 38 -37 39 -38 6 -14 -20 14 -38 26 -42 26 -7 0 -4 -22 6 -37 6 -9 3 -11
-7 -7 -12 4 -15 33 -15 149 -1 79 2 146 7 149 5 3 8 -13 7 -35 -2 -36 2 -43
42 -76 24 -20 42 -38 39 -40 -2 -2 -19 10 -37 26 -39 36 -49 38 -49 11 0 -11
4 -20 8 -20 5 0 24 -13 42 -30 39 -35 63 -39 58 -10 -2 10 1 19 6 20 11 0 12
-782 1 -800 -5 -8 -3 -11 6 -8 12 4 14 82 16 464 1 252 0 471 -3 486 -5 24
-10 26 -60 30 -31 1 -64 0 -75 -4z m-573 -26 c3 -25 6 -26 14 -7 7 17 9 14 9
-14 l1 -34 -21 27 c-11 14 -27 26 -35 26 -8 0 -13 4 -10 9 8 13 41 7 42 -7z
m267 9 c4 -1 7 -5 7 -11 0 -6 -9 -6 -24 0 -14 5 -27 5 -33 -1 -6 -6 -16 -4
-28 5 -17 12 -15 14 25 11 25 -2 48 -4 53 -4z m357 -1 c0 -5 -4 -10 -9 -10 -6
0 -13 5 -16 10 -3 6 1 10 9 10 9 0 16 -4 16 -10z m64 -1 c7 -7 14 -129 7 -129
-3 0 -12 9 -19 21 -8 12 -9 18 -3 14 7 -4 11 9 11 39 0 43 -2 46 -27 46 -20 0
-24 3 -14 9 14 9 36 9 45 0z m-531 -13 c4 -10 1 -13 -8 -10 -8 3 -13 0 -11 -9
3 -20 26 -47 40 -47 14 -1 82 -57 76 -63 -3 -3 -31 15 -62 39 -37 28 -58 39
-58 30 0 -8 4 -17 8 -20 5 -3 8 -26 7 -51 -1 -25 2 -48 8 -52 6 -3 7 -1 3 5
-4 7 -2 12 4 12 6 0 8 5 4 11 -4 8 0 8 15 0 25 -14 28 -22 4 -15 -16 5 -16 4
1 -10 10 -8 22 -14 25 -11 4 2 25 -11 46 -28 39 -32 55 -57 35 -57 -18 0 -10
-17 15 -30 36 -19 24 -23 -13 -4 -31 15 -43 34 -22 34 6 0 10 7 10 16 0 8 -5
12 -10 9 -6 -4 -9 -1 -8 7 2 7 -3 12 -11 10 -7 -1 -19 3 -27 9 -10 8 -14 8
-14 1 0 -6 9 -16 20 -22 14 -8 20 -21 20 -46 l0 -36 -49 41 c-75 63 -103 52
-31 -13 42 -38 42 -49 0 -16 -14 11 -27 20 -30 20 -12 0 -8 -39 5 -44 8 -3 19
-15 26 -28 12 -23 12 -23 -9 -5 -29 26 -36 0 -8 -33 l21 -25 -24 20 -24 20 8
-25 c4 -14 16 -34 26 -46 11 -11 19 -24 19 -29 0 -4 -8 2 -19 13 -18 21 -31
20 -31 -2 0 -6 24 -30 53 -52 l52 -41 1 46 c0 30 -5 51 -15 59 -9 8 -11 11 -5
8 16 -8 25 19 11 33 -6 6 -7 11 -2 11 6 0 10 11 10 25 0 14 -3 25 -7 25 -14 0
-8 18 7 24 13 5 15 -14 15 -132 -1 -131 -1 -136 -18 -117 -24 29 -82 75 -93
75 -5 0 -9 -6 -9 -14 0 -17 83 -86 104 -86 13 0 15 -23 15 -160 1 -120 -2
-160 -12 -160 -6 0 -12 11 -12 24 0 13 3 22 7 20 11 -7 2 96 -8 105 -40 33
-86 62 -91 57 -4 -3 4 -21 17 -39 12 -17 17 -26 9 -19 -22 21 -25 14 -24 -60
0 -68 1 -72 25 -79 23 -6 22 -7 -7 -8 l-33 -1 0 475 c0 399 2 475 14 475 8 0
16 -7 19 -14z m42 -36 c10 -11 16 -20 13 -20 -3 0 -13 9 -23 20 -10 11 -16 20
-13 20 3 0 13 -9 23 -20z m125 -66 c13 -34 10 -31 -24 18 -13 20 -22 39 -19
42 8 7 29 -23 43 -60z m-610 1 c3 2 12 0 20 -6 11 -6 6 -9 -17 -9 -18 0 -33 4
-33 9 0 11 -31 24 -39 16 -3 -3 1 -10 9 -15 13 -8 12 -10 -2 -10 -14 0 -18 8
-18 36 l0 35 37 -30 c20 -16 39 -28 43 -26z m931 38 c13 -16 12 -17 -3 -4 -17
13 -22 21 -14 21 2 0 10 -8 17 -17z m-322 -162 c13 -14 32 -26 43 -28 19 -3
19 -2 1 27 -9 16 -23 30 -29 30 -6 0 -17 7 -24 15 -8 9 -8 15 -2 15 6 0 12 -6
15 -12 2 -7 7 -10 11 -6 4 3 3 16 -4 27 -6 12 -7 21 -2 21 4 0 16 -19 27 -42
10 -24 40 -90 68 -148 56 -118 69 -150 61 -150 -2 0 -24 42 -48 93 -39 82 -65
119 -89 124 -14 3 -91 63 -81 63 5 1 -4 8 -21 17 -50 27 -95 65 -89 74 6 10
122 -75 163 -120z m-24 109 c10 -11 16 -20 13 -20 -3 0 -13 9 -23 20 -10 11
-16 20 -13 20 3 0 13 -9 23 -20z m-505 -111 c0 -5 -9 -4 -19 3 -11 7 -17 16
-14 20 5 10 33 -10 33 -23z m54 -48 c-2 -3 -12 3 -22 13 -16 17 -16 18 5 5 12
-7 20 -15 17 -18z m486 -21 c0 -5 -2 -10 -4 -10 -3 0 -8 5 -11 10 -3 6 -1 10
4 10 6 0 11 -4 11 -10z m244 -95 c1 -52 -2 -95 -6 -95 -5 0 -8 46 -8 102 0 56
3 98 6 95 4 -4 7 -49 8 -102z m-199 77 c-3 -3 -11 0 -18 7 -9 10 -8 11 6 5 10
-3 15 -9 12 -12z m-48 -83 c1 -12 15 -35 30 -52 24 -26 25 -28 6 -18 -22 11
-43 43 -64 98 -10 26 -9 26 8 10 10 -9 19 -26 20 -38z m-517 -57 c0 -1 -10 4
-23 13 -13 8 -26 12 -30 9 -3 -3 -5 3 -4 14 1 19 3 18 29 -7 15 -14 28 -27 28
-29z m-40 -18 c0 -14 -4 -23 -9 -20 -7 5 -8 23 -2 44 4 12 11 -3 11 -24z m641
-21 c13 -16 12 -17 -3 -4 -10 7 -18 15 -18 17 0 8 8 3 21 -13z m-9 -67 c-4
-15 -7 -16 -10 -6 -3 8 -12 29 -20 45 l-15 30 25 -24 c17 -16 23 -31 20 -45z
m132 -1 l25 -50 1 60 c0 40 3 55 9 45 6 -8 7 -18 5 -22 -3 -4 1 -8 8 -8 10 0
9 -3 -1 -9 -11 -7 -12 -13 -3 -23 9 -11 9 -17 0 -26 -8 -8 -8 -16 3 -29 10
-13 6 -12 -17 4 -31 22 -71 64 -46 49 17 -10 15 -3 -10 41 -12 21 -16 34 -10
28 6 -5 22 -32 36 -60z m100 -14 c-2 -3 -12 3 -22 13 -16 17 -16 18 5 5 12 -7
20 -15 17 -18z m-189 -71 c-4 -7 10 -21 93 -91 31 -25 17 -25 -15 1 -54 42
-59 13 -7 -38 19 -18 29 -31 22 -28 -7 3 -20 9 -29 12 -9 3 -32 38 -50 77 -18
40 -35 75 -37 80 -2 4 3 4 12 1 9 -3 14 -10 11 -14z m109 -52 c11 -10 24 -18
30 -18 5 0 7 -3 3 -6 -7 -7 -96 56 -118 83 -14 17 49 -26 85 -59z m-724 -28
l35 -33 -44 32 c-25 17 -50 31 -56 31 -6 0 -11 10 -12 21 -2 24 -2 24 77 -51z
m786 28 l19 -23 -25 20 c-14 11 -27 21 -29 22 -2 2 0 3 6 3 5 0 18 -10 29 -22z
m-751 -103 c17 -15 7 -10 -20 9 -67 46 -76 47 -81 9 -3 -28 2 -36 59 -80 34
-27 71 -54 82 -61 19 -11 18 -11 -8 -12 -16 0 -26 4 -22 9 8 13 -125 111 -150
111 -16 0 -13 -6 20 -35 22 -19 43 -34 46 -35 3 0 18 -11 32 -24 l25 -23 -45
-1 c-38 -1 -50 4 -77 30 -27 28 -28 30 -6 18 14 -7 27 -16 30 -21 9 -13 60
-22 60 -10 0 6 -4 11 -9 11 -5 0 -33 22 -63 48 -29 26 -62 48 -73 47 -18 0
-20 -6 -19 -62 1 -35 -3 -63 -7 -63 -5 0 -9 29 -9 64 0 73 5 77 73 70 51 -5
56 2 53 59 l-3 36 41 -34 c23 -19 55 -46 71 -60z m28 25 c-3 -11 0 -20 6 -20
6 0 11 -6 11 -12 -1 -14 -40 29 -40 43 0 5 6 9 14 9 9 0 12 -7 9 -20z m747
-47 c0 -7 -58 36 -66 49 -4 7 9 -1 29 -16 20 -16 37 -30 37 -33z m-690 14 c0
-5 10 -18 23 -29 19 -17 18 -17 -10 2 -39 25 -47 37 -28 37 8 0 15 -4 15 -10z
m51 3 c15 -9 19 -22 19 -69 0 -57 -1 -59 -29 -63 -16 -2 -37 -1 -47 3 -11 4
-13 8 -6 8 8 1 10 6 6 14 -6 10 -4 10 7 0 7 -7 21 -13 30 -13 20 0 24 12 24
65 0 32 -5 42 -25 52 -14 7 -19 13 -12 13 7 0 22 -5 33 -10z m204 -10 c10 -11
16 -20 13 -20 -3 0 -13 9 -23 20 -10 11 -16 20 -13 20 3 0 13 -9 23 -20z m319
-16 c3 -8 2 -12 -4 -9 -6 3 -10 10 -10 16 0 14 7 11 14 -7z m-589 -24 c10 -11
16 -20 13 -20 -3 0 -13 9 -23 20 -10 11 -16 20 -13 20 3 0 13 -9 23 -20z m615
-28 c0 -15 -2 -15 -10 -2 -13 20 -13 33 0 25 6 -3 10 -14 10 -23z m-635 -2
c10 -11 16 -20 13 -20 -3 0 -13 9 -23 20 -10 11 -16 20 -13 20 3 0 13 -9 23
-20z m79 -19 c-2 -3 -12 3 -22 13 -16 17 -16 18 5 5 12 -7 20 -15 17 -18z
m591 -31 c3 -6 -1 -7 -9 -4 -18 7 -21 14 -7 14 6 0 13 -4 16 -10z m-900 -10
c-3 -5 -14 -10 -23 -9 -14 0 -13 2 3 9 27 11 27 11 20 0z m972 -6 c-3 -3 -12
-4 -19 -1 -8 3 -5 6 6 6 11 1 17 -2 13 -5z m-641 -18 c14 3 39 -2 56 -11 30
-14 53 -12 43 5 -3 4 6 7 19 6 13 0 22 -4 20 -7 -2 -4 17 -23 43 -43 25 -20
43 -36 39 -36 -4 0 -27 16 -51 35 -29 24 -48 33 -60 28 -16 -5 -13 -11 21 -40
37 -33 37 -34 8 -19 -17 8 -34 22 -38 31 -3 8 -9 14 -13 13 -4 -1 -21 6 -36
16 -15 10 -31 15 -35 11 -6 -6 5 -17 53 -52 6 -5 27 -22 47 -40 l37 -31 -50
-4 c-54 -3 -72 0 -64 12 3 4 -26 30 -64 58 -44 32 -72 46 -75 39 -2 -7 -5 -4
-5 6 -1 9 5 17 12 18 6 0 20 2 30 4 14 3 16 0 7 -10 -8 -10 3 -21 47 -51 32
-21 63 -44 69 -52 5 -8 20 -12 33 -10 19 2 11 12 -53 58 -41 30 -75 62 -75 70
0 9 2 10 5 3 3 -6 16 -9 30 -7z m-420 -17 c14 -12 38 -3 29 11 -3 4 1 7 7 6
17 -2 107 -69 108 -79 0 -5 -20 8 -44 28 -30 24 -49 33 -61 28 -16 -5 -13 -11
21 -40 37 -32 38 -33 7 -18 -17 9 -34 23 -37 32 -4 9 -9 13 -13 9 -3 -3 -13 0
-22 7 -22 19 -51 28 -51 17 0 -5 12 -17 28 -27 15 -9 32 -21 37 -27 6 -6 25
-23 43 -39 l34 -27 -27 0 c-14 0 -24 4 -20 9 6 11 -142 121 -162 121 -27 0
-11 -19 45 -56 31 -21 63 -44 70 -51 7 -7 18 -13 23 -13 6 0 8 -4 5 -9 -7 -10
-46 -3 -46 9 0 15 -139 109 -144 97 -2 -7 -5 -5 -5 5 -1 9 7 19 17 21 29 7
145 -3 158 -14z m216 -45 c4 -64 1 -74 -18 -74 -11 0 -11 5 -1 27 9 21 9 27
-2 31 -10 3 -11 6 -1 12 8 5 10 18 6 34 -4 16 -11 24 -18 20 -7 -4 -8 -3 -4 4
16 26 34 -1 38 -54z m435 60 c-3 -3 -12 -4 -19 -1 -8 3 -5 6 6 6 11 1 17 -2
13 -5z m53 -70 c0 -51 -3 -64 -15 -64 -12 0 -13 4 -6 18 17 33 9 118 -11 106
-7 -4 -8 -3 -4 4 4 6 13 9 21 5 11 -4 15 -22 15 -69z m229 66 c-7 -5 0 -15 18
-29 15 -11 33 -24 38 -28 6 -5 27 -23 48 -40 37 -32 37 -33 12 -33 -15 0 -24
4 -20 10 3 5 -7 17 -22 27 -15 10 -30 20 -33 23 -16 18 -96 70 -107 70 -22 0
-14 -20 12 -32 14 -6 25 -15 25 -19 0 -4 8 -10 18 -13 10 -4 27 -14 38 -24 11
-10 28 -24 39 -30 19 -11 18 -11 -7 -12 -16 0 -28 3 -28 8 0 4 -31 31 -70 60
-53 40 -70 48 -70 35 1 -20 77 -84 112 -95 22 -6 21 -6 -4 -7 -14 -1 -28 2
-30 7 -1 4 -20 19 -40 34 -32 25 -37 26 -40 10 -3 -9 -5 3 -6 28 0 25 4 48 11
52 7 4 36 7 65 6 29 -1 47 -5 41 -8z m88 -4 c12 16 13 16 13 1 0 -9 -5 -17
-12 -17 -6 0 4 -13 22 -30 18 -16 28 -30 21 -30 -6 0 -22 10 -34 23 -12 12
-34 29 -49 36 -16 8 -28 19 -28 24 0 5 12 1 27 -8 25 -17 27 -17 40 1z m123
-83 c0 -2 -22 15 -50 39 -27 24 -50 46 -50 50 0 4 23 -14 50 -39 28 -25 50
-48 50 -50z m30 87 c0 -5 -2 -10 -4 -10 -3 0 -8 5 -11 10 -3 6 -1 10 4 10 6 0
11 -4 11 -10z m30 -45 c4 -81 2 -85 -27 -84 -17 1 -21 3 -11 6 22 6 28 28 23
87 -2 27 0 45 5 40 5 -5 9 -27 10 -49z m-1070 35 c0 -5 -2 -10 -4 -10 -3 0 -8
5 -11 10 -3 6 -1 10 4 10 6 0 11 -4 11 -10z m-253 -69 c24 -22 54 -42 66 -44
19 -4 18 -4 -5 -6 -14 0 -28 2 -30 7 -1 4 -20 20 -40 35 -35 25 -38 26 -38 9
0 -22 15 -37 45 -45 11 -3 4 -5 -15 -4 -33 2 -35 4 -38 45 -2 23 0 42 3 42 4
0 27 -18 52 -39z m476 9 c19 -16 47 -37 63 -45 26 -13 26 -15 7 -15 -12 0 -23
4 -25 8 -6 15 -69 54 -76 48 -10 -11 13 -40 39 -48 19 -5 17 -6 -11 -5 -34 2
-35 3 -36 45 -1 23 0 42 2 42 2 0 19 -13 37 -30z m-218 -58 c-9 -9 -35 8 -35
24 0 16 2 16 20 -1 11 -10 18 -20 15 -23z m994 0 c-17 -7 -39 7 -39 23 0 14 3
14 24 -2 13 -10 20 -20 15 -21z m-293 19 c5 -5 18 -11 29 -14 12 -3 5 -5 -16
-6 -26 -1 -36 3 -36 14 0 17 9 19 23 6z"/>
<path d="M2290 1811 c0 -11 29 -23 40 -16 5 3 11 1 15 -5 3 -5 12 -10 18 -10
12 1 -16 20 -30 21 -5 1 -16 5 -25 10 -11 6 -18 6 -18 0z"/>
<path d="M2263 1793 c-1 -15 72 -83 88 -83 15 0 1 40 -20 55 -21 16 -24 16
-18 2 4 -11 2 -14 -8 -10 -8 3 -12 9 -9 14 6 10 -13 39 -25 39 -4 0 -7 -8 -8
-17z"/>
<path d="M2250 1430 c0 -5 9 -19 21 -31 l21 -21 -22 7 c-24 8 -25 0 -4 -49 5
-14 4 -17 -5 -11 -9 5 -12 2 -9 -11 3 -16 80 -84 96 -84 4 0 7 20 6 45 0 30
-7 50 -20 62 -11 10 -15 15 -10 11 14 -11 36 -10 36 2 0 14 -46 56 -82 75 -16
9 -28 11 -28 5z"/>
<path d="M1955 2000 c3 -5 8 -10 11 -10 2 0 4 5 4 10 0 6 -5 10 -11 10 -5 0
-7 -4 -4 -10z"/>
<path d="M1960 1946 c0 -2 7 -7 16 -10 8 -3 12 -2 9 4 -6 10 -25 14 -25 6z"/>
<path d="M1900 1915 c0 -2 13 -13 30 -25 20 -14 28 -16 24 -7 -5 13 -54 42
-54 32z"/>
<path d="M1890 1871 c0 -14 67 -89 92 -102 16 -9 18 -6 16 20 -1 16 -5 28 -9
25 -4 -2 -10 3 -13 12 -4 9 -9 14 -12 11 -4 -3 -22 5 -40 20 -19 14 -34 20
-34 14z"/>
<path d="M2695 1858 c3 -13 9 -24 14 -26 5 -2 25 -16 43 -32 36 -32 48 -37 48
-17 0 18 -11 29 -52 57 -21 14 -38 28 -38 33 0 4 -4 7 -9 7 -6 0 -8 -10 -6
-22z"/>
<path d="M1970 1866 c0 -2 7 -9 15 -16 9 -7 15 -8 15 -2 0 5 -7 12 -15 16 -8
3 -15 4 -15 2z"/>
<path d="M1047 1043 c-4 -3 -7 -39 -7 -80 0 -65 2 -73 19 -73 11 0 26 -3 35
-6 9 -3 16 -1 16 4 0 6 -12 12 -27 14 -18 2 -29 10 -32 23 -3 19 -3 19 16 3
11 -10 27 -18 36 -18 9 0 17 -6 17 -12 0 -10 38 -13 157 -13 87 0 163 4 170 8
13 8 12 125 -1 146 -8 12 -388 16 -399 4z m122 -14 c-7 -4 -1 -13 16 -25 15
-11 38 -28 50 -40 12 -11 35 -30 50 -42 26 -20 26 -22 6 -22 -11 0 -21 4 -21
8 0 12 -151 122 -166 122 -26 0 -3 -27 51 -61 30 -19 55 -38 55 -42 0 -4 10
-12 23 -17 20 -8 19 -9 -11 -9 -18 -1 -31 3 -27 8 3 5 -9 20 -27 32 -18 13
-35 26 -38 29 -14 17 -68 49 -74 43 -3 -3 -6 -1 -6 5 0 5 6 13 13 15 19 8 119
4 106 -4z m111 -49 c19 -16 29 -30 22 -30 -7 0 -21 9 -31 19 -11 11 -23 16
-27 13 -4 -4 -5 -2 -1 3 3 6 -8 17 -24 24 -16 7 -29 17 -29 22 0 13 47 -14 90
-51z m10 51 c0 -6 20 -24 45 -42 25 -18 43 -34 41 -37 -3 -2 -25 12 -50 33
-25 20 -50 34 -56 30 -11 -7 -14 8 -3 18 9 10 23 8 23 -2z m80 -1 c-8 -5 -19
-10 -25 -10 -5 0 -3 5 5 10 8 5 20 10 25 10 6 0 3 -5 -5 -10z m65 -2 c3 -3 8
-97 6 -115 0 -7 -5 -13 -10 -13 -5 0 -8 21 -6 48 4 53 -2 85 -15 77 -5 -3 -11
-1 -15 4 -5 9 33 7 40 -1z m-359 -45 c4 4 12 -3 18 -15 6 -13 29 -33 51 -45
31 -18 35 -23 18 -23 -12 0 -23 3 -25 8 -1 4 -20 19 -40 34 -25 19 -38 24 -41
15 -3 -6 -6 2 -6 18 -1 22 2 26 9 15 5 -8 12 -11 16 -7z m293 -81 c-17 -7 -39
7 -39 23 0 14 3 14 24 -2 13 -10 20 -20 15 -21z"/>
</g>
</svg>
